<?xml version="1.0" encoding="UTF-8" standalone="no"?>
<svg
   xmlns:dc="http://purl.org/dc/elements/1.1/"
   xmlns:cc="http://creativecommons.org/ns#"
   xmlns:rdf="http://www.w3.org/1999/02/22-rdf-syntax-ns#"
   xmlns:svg="http://www.w3.org/2000/svg"
   xmlns="http://www.w3.org/2000/svg"
   viewBox="0 0 356.875 169.375"
   height="169.375"
   width="356.875"
   xml:space="preserve"
   version="1.1"
   id="svg2"><metadata
     id="metadata8"><rdf:RDF><cc:Work
         rdf:about=""><dc:format>image/svg+xml</dc:format><dc:type
           rdf:resource="http://purl.org/dc/dcmitype/StillImage" /><dc:title></dc:title></cc:Work></rdf:RDF></metadata><defs
     id="defs6"><clipPath
       id="clipPath16"
       clipPathUnits="userSpaceOnUse"><path
         id="path18"
         d="m 0,135.5 285.5,0 L 285.5,0 0,0 0,135.5 Z" /></clipPath><clipPath
       id="clipPath84"
       clipPathUnits="userSpaceOnUse"><path
         id="path86"
         d="m 176.945,92.093 c -0.999,-0.9 -1.665,-1.062 -2.9,-0.549 l 0,0 c -4.691,1.948 -9.656,0.761 -12.744,-2.902 l 0,0 c -0.287,-0.34 -0.688,-0.648 -0.653,-1.31 l 0,0 c 3.936,-0.781 7.221,-2.752 9.976,-5.639 l 0,0 c 0.126,-0.201 0.24,-0.41 0.38,-0.6 l 0,0 c 4.633,-6.325 5.157,-12.949 1.473,-19.891 l 0,0 c -0.159,-0.299 -0.49,-0.554 -0.356,-0.963 l 0,0 c 0.101,-0.059 0.193,-0.159 0.285,-0.159 l 0,0 c 5.87,0.011 11.739,0.031 17.609,0.05 l 0,0 c 4.422,-0.108 8.844,-0.125 13.266,-0.01 l 0,0 2.095,0.162 c 6.019,1.022 9.946,5.879 9.775,12.142 l 0,0 c -0.155,5.705 -4.919,10.573 -10.832,11.008 l 0,0 c -1.526,0.111 -1.275,-0.059 -1.639,1.524 l 0,0 c -1.154,5.029 -4.063,8.692 -8.811,10.628 l 0,0 c -2.053,0.836 -4.034,1.231 -5.942,1.231 l 0,0 c -3.985,-0.001 -7.651,-1.72 -10.982,-4.722" /></clipPath><linearGradient
       id="linearGradient92"
       spreadMethod="pad"
       gradientTransform="matrix(34.25,31.25,31.25,-34.25,165.73694,57.144314)"
       gradientUnits="userSpaceOnUse"
       y2="0"
       x2="1"
       y1="0"
       x1="0"><stop
         id="stop94"
         offset="0"
         style="stop-opacity:1;stop-color:#03a5e5" /><stop
         id="stop96"
         offset="0.81179374"
         style="stop-opacity:1;stop-color:#13659c" /><stop
         id="stop98"
         offset="1"
         style="stop-opacity:1;stop-color:#13659c" /></linearGradient><clipPath
       id="clipPath106"
       clipPathUnits="userSpaceOnUse"><path
         id="path108"
         d="m 0,135.5 285.5,0 L 285.5,0 0,0 0,135.5 Z" /></clipPath><clipPath
       id="clipPath118"
       clipPathUnits="userSpaceOnUse"><path
         id="path120"
         d="m 91.316,111.052 -0.66,-2.802 -0.741,0.007 c -6.498,0.049 -11.639,-2.675 -15.507,-7.826 l 0,0 C 69.611,94.044 69.403,85.433 73.684,78.691 l 0,0 c 0.717,-1.131 1.535,-2.207 2.654,-3.2 l 0,0 c 0.3,0.703 0.516,1.243 0.758,1.771 l 0,0 c 1.481,3.23 3.746,5.786 6.685,7.763 l 0,0 c 2.125,1.107 4.288,2.154 6.708,2.381 l 0,0 c 1.028,0.097 1.373,0.547 1.639,1.488 l 0,0 c 1.412,5 4.137,8.998 8.277,12.039 l 0,0 c 0.705,0.518 1.936,1.241 2.726,1.615 l 0,0 1.416,0.67 c 0.73,0.342 1.707,0.59 2.482,0.811 l 0,0 c 4.242,1.215 8.492,1.127 12.761,-0.202 l 0,0 c 2.506,-0.845 4.871,-1.976 7.011,-3.537 l 0,0 c 1.058,-0.772 1.992,-2.089 3.127,-2.276 l 0,0 c 1.224,-0.202 2.617,0.63 3.936,1.01 l 0,0 1.741,0.275 c 0.392,0.028 0.785,0.056 1.176,0.084 l 0,0 c 4.233,-0.098 8.065,-1.283 11.259,-4.123 l 0,0 c 0.84,-0.746 1.583,-1.601 2.371,-2.406 l 0,0 c 0.993,-1.692 2.042,-3.356 2.581,-5.276 l 0,0 c 0.036,-0.129 0.155,-0.216 0.289,-0.207 l 0,0 c 1.533,0.109 3.084,0.111 4.574,0.568 l 0,0 c 0.085,0.027 0.13,0.193 0.188,0.297 l 0,0 c 1.411,2.543 3.569,4.282 6.075,5.647 l 0,0 c 3.439,1.197 6.892,1.451 10.362,0.129 l 0,0 c 0.722,-0.274 1.124,0.134 1.478,0.664 l 0,0 c 0.841,0.359 1.284,1.241 2.066,1.639 l 0,0 c 2.316,1.176 4.685,2.234 7.286,2.638 l 0,0 c 0.75,0.116 1.499,0.235 2.44,0.384 l 0,0 c -2.893,4.299 -6.576,7.084 -11.423,8.268 l 0,0 c -3.658,1.216 -7.289,0.881 -10.912,-0.172 l 0,0 c -0.55,-0.16 -1.074,-0.591 -1.694,-0.21 l 0,0 c -0.016,1.582 -0.525,3.059 -1.12,4.481 l 0,0 c -2.144,5.12 -5.432,8.643 -10.183,10.329 l 0,0 c -2.159,0.765 -4.445,1.101 -6.731,0.967 l 0,0 -2.421,-0.256 c -1.764,-0.105 -3.507,-0.479 -5.135,-1.166 l 0,0 c -0.085,-0.036 -0.17,-0.072 -0.256,-0.109 l 0,0 c -1.204,-0.516 -2.601,-0.259 -3.541,0.655 l 0,0 c -1.877,1.824 -3.849,3.423 -6.303,4.485 l 0,0 c 0,0 -1.385,1.183 -5.132,2.468 l 0,0 c -2.485,0.853 -5.027,1.255 -7.539,1.255 l 0,0 c -11.066,0 -21.555,-7.802 -24.044,-19.28" /></clipPath><linearGradient
       id="linearGradient126"
       spreadMethod="pad"
       gradientTransform="matrix(0.5,-53.249996,-53.249996,-0.5,128.78009,137.96037)"
       gradientUnits="userSpaceOnUse"
       y2="0"
       x2="1"
       y1="0"
       x1="0"><stop
         id="stop128"
         offset="0"
         style="stop-opacity:1;stop-color:#03a5e5" /><stop
         id="stop130"
         offset="0.16290672"
         style="stop-opacity:1;stop-color:#03a5e5" /><stop
         id="stop132"
         offset="1"
         style="stop-opacity:1;stop-color:#13659c" /></linearGradient><clipPath
       id="clipPath140"
       clipPathUnits="userSpaceOnUse"><path
         id="path142"
         d="m 0,135.5 285.5,0 L 285.5,0 0,0 0,135.5 Z" /></clipPath></defs><g
     transform="matrix(1.25,0,0,-1.25,0,169.375)"
     id="g10"><g
       id="g12"><g
         clip-path="url(#clipPath16)"
         id="g14"><g
           transform="translate(8.9602,30.1059)"
           id="g20"><path
             id="path22"
             style="fill:#66b832;fill-opacity:1;fill-rule:nonzero;stroke:none"
             d="m 0,0 c 0,-0.7 0,-1.269 0,-1.839 0,-7.618 0,-15.235 0,-22.853 0,-0.419 -0.02,-0.84 0,-1.259 0.028,-0.589 -0.192,-0.879 -0.823,-0.872 -1.679,0.02 -3.359,0.018 -5.038,-0.002 -0.632,-0.008 -0.848,0.298 -0.828,0.877 0.012,0.359 -0.002,0.719 -0.002,1.079 0,9.297 -0.002,18.594 0.003,27.891 0,0.599 -0.001,1.203 0.077,1.795 0.245,1.861 1.59,3.208 3.463,3.292 2.095,0.095 4.198,0.006 6.296,0.052 0.952,0.02 0.999,-0.634 1.165,-1.279 1.3,-5.047 2.611,-10.091 3.918,-15.136 0.721,-2.783 1.443,-5.567 2.159,-8.352 0.104,-0.404 0.143,-0.834 0.643,-1.188 0.75,2.867 1.493,5.682 2.221,8.5 1.364,5.278 2.717,10.559 4.08,15.837 0.412,1.594 0.421,1.601 1.985,1.605 2.519,0.007 5.038,0.01 7.558,-10e-4 1.522,-0.007 1.537,-0.02 1.538,-1.606 0.005,-9.717 0.002,-19.434 0.002,-29.15 0,-1.08 -0.022,-2.16 0.006,-3.239 0.018,-0.661 -0.187,-0.992 -0.91,-0.979 -1.679,0.03 -3.359,0.016 -5.038,0.009 -0.522,-0.002 -0.774,0.231 -0.772,0.752 0.003,0.48 -0.006,0.96 -0.006,1.439 -10e-4,7.498 0.003,14.995 -0.009,22.493 -10e-4,0.569 0.151,1.169 -0.217,1.782 -0.579,-0.923 -0.657,-1.949 -0.9,-2.904 -1.861,-7.315 -3.671,-14.643 -5.524,-21.959 -0.482,-1.902 -0.295,-1.58 -1.962,-1.602 -1.439,-0.019 -2.879,-0.01 -4.318,-0.003 -1.553,0.008 -1.562,0.011 -1.927,1.436 -1.218,4.759 -2.426,9.52 -3.642,14.279 -0.83,3.251 -1.665,6.5 -2.5,9.749 C 0.583,-0.911 0.567,-0.417 0,0" /></g><g
           transform="translate(118.4143,32.1045)"
           id="g24"><path
             id="path26"
             style="fill:#1e83ba;fill-opacity:1;fill-rule:nonzero;stroke:none"
             d="m 0,0 c 0,0.009 0,0.018 0,0.027 -1.436,0 -2.872,-0.019 -4.307,0.008 -0.716,0.013 -1.113,-0.172 -1.102,-0.994 0.031,-2.392 0.039,-4.786 -0.004,-7.179 -0.016,-0.924 0.447,-1.094 1.217,-1.088 2.274,0.02 4.547,-0.014 6.82,0.018 0.834,0.012 1.675,0.1 2.497,0.244 1.095,0.191 2.033,0.695 2.651,1.671 1.984,3.128 0.03,7.065 -3.645,7.28 C 2.756,0.067 1.376,0 0,0 m 10.741,-12.066 c 0.227,-0.198 0.342,-0.353 0.495,-0.422 1.949,-0.869 2.825,-2.468 3.164,-4.487 0.429,-2.554 0.426,-5.134 0.557,-7.706 0.07,-1.376 0.015,-2.759 1.128,-4.157 -2.573,0 -4.829,0.014 -7.084,-0.008 -0.71,-0.008 -0.94,0.443 -1.066,0.987 -0.285,1.229 -0.426,2.478 -0.439,3.744 -0.017,1.677 -0.006,3.354 -0.303,5.02 -0.495,2.779 -1.276,3.578 -4.158,3.726 -2.393,0.122 -4.796,0.035 -7.194,0.095 -0.936,0.024 -1.263,-0.314 -1.25,-1.257 0.042,-3.298 0.015,-6.597 0.015,-9.896 0,-0.42 -0.033,-0.842 0.006,-1.259 0.075,-0.814 -0.172,-1.206 -1.086,-1.172 -1.677,0.06 -3.359,0.054 -5.037,0.002 -0.897,-0.028 -1.184,0.351 -1.095,1.174 0.026,0.237 0.003,0.48 0.003,0.72 0,9.416 0.002,18.832 -0.003,28.248 0,0.904 -0.036,1.816 0.389,2.642 0.652,1.268 1.708,2.098 3.134,2.092 5.453,-0.026 10.924,0.406 16.356,-0.227 5.6,-0.651 8.514,-4.137 8.379,-9.768 -0.069,-2.904 -0.78,-6.077 -4.911,-8.091" /></g><g
           transform="translate(250.8483,16.7978)"
           id="g28"><path
             id="path30"
             style="fill:#1e83ba;fill-opacity:1;fill-rule:nonzero;stroke:none"
             d="m 0,0 c 0.067,1.516 -0.134,2.989 -0.692,4.406 -0.886,2.249 -2.561,3.411 -4.95,3.522 -2.247,0.104 -4.175,-1.095 -5.052,-3.343 -1.276,-3.266 -1.215,-6.585 0.223,-9.791 1,-2.229 2.889,-3.082 5.283,-2.925 2.229,0.146 3.652,1.356 4.441,3.371 C -0.149,-3.234 0.062,-1.634 0,0 m 0.016,10.536 c 0,2.735 0,5.471 0,8.207 0,2.712 0.008,2.58 2.617,2.732 C 5.24,21.627 7.001,19.832 6.945,17.193 6.811,10.782 6.891,4.368 6.897,-2.045 6.898,-3.856 6.708,-5.63 6.083,-7.343 c -0.704,-1.932 -1.9,-3.428 -3.725,-4.434 -4.366,-2.408 -8.908,-2.994 -13.69,-1.449 -2.347,0.759 -4.048,2.252 -5.21,4.409 -0.863,1.603 -1.403,3.312 -1.632,5.105 -0.444,3.481 -0.395,6.931 0.814,10.289 0.534,1.482 1.316,2.807 2.304,4.033 3.585,4.447 11.095,4.58 14.367,0.245 0.108,-0.144 0.222,-0.284 0.333,-0.426 0.124,0.036 0.248,0.071 0.372,0.107" /></g><g
           transform="translate(73.3367,16.8869)"
           id="g32"><path
             id="path34"
             style="fill:#66b832;fill-opacity:1;fill-rule:nonzero;stroke:none"
             d="m 0,0 c -0.061,-1.775 0.158,-3.496 0.912,-5.1 1.027,-2.184 2.776,-3.208 5.199,-3.106 2.307,0.096 3.864,1.275 4.619,3.382 1.061,2.961 1.163,5.993 0.12,8.992 C 10.037,6.507 8.25,7.797 5.862,7.903 3.671,8.001 1.791,6.772 0.788,4.551 0.134,3.102 -0.065,1.564 0,0 m 11.527,10.118 c 0,3.326 -0.007,6.304 0.002,9.282 0.007,2.138 -0.206,1.842 1.895,1.994 3.707,0.269 5.124,-1.532 5.032,-4.994 -0.162,-6.05 -0.053,-12.108 -0.044,-18.163 0.003,-1.809 -0.167,-3.585 -0.733,-5.316 -0.703,-2.15 -2.006,-3.775 -4.013,-4.856 -4.272,-2.3 -8.713,-2.827 -13.37,-1.389 -2.421,0.747 -4.181,2.259 -5.361,4.487 -0.765,1.444 -1.305,2.964 -1.536,4.577 -0.478,3.35 -0.51,6.686 0.459,9.974 0.479,1.627 1.243,3.103 2.262,4.461 3.745,4.995 11.454,4.969 14.711,0.592 0.105,-0.141 0.259,-0.245 0.696,-0.649" /></g><g
           transform="translate(153.8598,19.4868)"
           id="g36"><path
             id="path38"
             style="fill:#1e83ba;fill-opacity:1;fill-rule:nonzero;stroke:none"
             d="M 0,0 C 0.138,2.905 -1.217,4.852 -3.606,5.348 -6.395,5.928 -8.851,4.667 -9.715,2.183 -9.87,1.737 -9.921,1.252 -9.994,0.781 -10.072,0.272 -9.862,-0.003 -9.314,-0.003 -6.206,0.003 -3.098,0 0,0 m 6.968,-7.934 c -0.936,-4.557 -4.503,-7.835 -9.135,-8.577 -1.602,-0.257 -3.204,-0.319 -4.835,-0.11 -4.394,0.563 -7.489,2.886 -9.074,6.952 -1.783,4.573 -1.799,9.293 -0.07,13.892 1.575,4.187 4.734,6.496 9.2,7.008 1.747,0.201 3.484,0.145 5.19,-0.219 C 3.363,9.92 6.544,6.276 7.287,0.674 7.452,-0.571 7.52,-1.835 7.544,-3.092 7.573,-4.581 7.53,-4.606 6.046,-4.61 1.367,-4.622 -3.311,-4.608 -7.989,-4.622 c -0.646,-0.002 -1.319,0.155 -1.932,-0.181 -0.465,-4.014 2.845,-7.353 7.725,-5.573 0.693,0.252 1.245,0.706 1.704,1.279 0.552,0.689 1.259,1.137 2.148,1.154 1.733,0.032 3.467,0.009 5.312,0.009" /></g><g
           transform="translate(57.1238,19.5763)"
           id="g40"><path
             id="path42"
             style="fill:#66b832;fill-opacity:1;fill-rule:nonzero;stroke:none"
             d="M 0,0 C 0.029,3.605 -1.856,5.489 -5.26,5.371 -8.232,5.268 -10.126,3.128 -9.941,0 L 0,0 Z M 6.743,-7.986 C 7.067,-8.749 6.69,-9.284 6.468,-9.813 c -1.567,-3.727 -4.452,-5.864 -8.333,-6.688 -2.13,-0.452 -4.297,-0.449 -6.43,0.036 -3.795,0.863 -6.469,3.155 -7.826,6.757 -1.753,4.653 -1.804,9.434 0.014,14.067 1.852,4.714 5.654,6.775 10.586,6.945 1.324,0.046 2.641,-0.091 3.929,-0.386 C 3.454,9.762 6.104,6.356 7.106,1.483 7.431,-0.1 7.583,-1.72 7.531,-3.347 7.49,-4.608 7.469,-4.664 6.2,-4.669 1.462,-4.685 -3.277,-4.675 -8.015,-4.676 c -2.298,-10e-4 -2.4,-0.133 -1.793,-2.288 1.161,-4.119 6.149,-5.418 9.126,-2.325 0.861,0.893 1.765,1.353 2.995,1.314 1.493,-0.046 2.988,-0.011 4.43,-0.011" /></g><g
           transform="translate(263.0045,12.2004)"
           id="g44"><path
             id="path46"
             style="fill:#1e83ba;fill-opacity:1;fill-rule:nonzero;stroke:none"
             d="m 0,0 c 0.36,0 0.723,-0.03 1.079,0.006 1.341,0.136 2.456,0.084 2.707,-1.687 0.118,-0.833 0.918,-1.389 1.72,-1.725 1.894,-0.793 3.838,-0.882 5.803,-0.29 0.338,0.101 0.669,0.279 0.958,0.484 1.304,0.928 1.314,2.337 0.009,3.267 C 11.382,0.692 10.334,0.979 9.274,1.201 7.456,1.582 5.638,1.963 3.878,2.569 3.086,2.842 2.284,3.104 1.527,3.458 c -2.418,1.128 -4.173,2.789 -4.4,5.646 -0.248,3.114 0.784,5.661 3.34,7.505 0.624,0.451 1.332,0.837 2.058,1.087 4.01,1.379 8.015,1.324 11.936,-0.32 2.915,-1.222 4.363,-3.604 4.944,-6.615 0.159,-0.828 -0.181,-1.085 -0.947,-1.055 -0.719,0.028 -1.443,0.049 -2.159,-0.005 -1.8,-0.135 -3.2,0.387 -4.373,1.893 -1.269,1.628 -4.8,2.053 -6.67,1.054 C 3.771,11.855 3.693,10.27 5.14,9.402 6.815,8.398 8.737,8.095 10.601,7.686 12.365,7.3 14.073,6.777 15.745,6.114 c 4.01,-1.589 5.342,-4.43 4.302,-9.03 -0.58,-2.569 -2.278,-4.305 -4.695,-5.318 -2.833,-1.188 -5.816,-1.376 -8.83,-1.202 -1.676,0.097 -3.343,0.338 -4.911,1.001 -3.179,1.345 -4.884,3.757 -5.122,7.188 -0.08,1.15 -10e-4,1.205 1.172,1.242 C -1.56,0.02 -0.78,0 0,0" /></g><g
           transform="translate(206.9176,16.9188)"
           id="g48"><path
             id="path50"
             style="fill:#1e83ba;fill-opacity:1;fill-rule:nonzero;stroke:none"
             d="m 0,0 c 0.039,1.448 -0.106,2.995 -0.698,4.46 -1.05,2.603 -3.371,3.945 -5.813,3.414 -1.99,-0.433 -3.302,-1.616 -3.919,-3.547 -1.065,-3.327 -0.768,-6.616 0.399,-9.849 0.476,-1.318 1.492,-2.145 2.8,-2.603 2.706,-0.948 5.36,0.367 6.47,3.246 C -0.173,-3.356 0.003,-1.748 0,0 M 6.828,-0.196 C 6.95,-2.314 6.645,-4.374 5.946,-6.378 c -1.866,-5.351 -6.002,-7.884 -12.004,-7.775 -0.834,0.015 -1.677,0.143 -2.493,0.323 -4.805,1.062 -7.795,3.919 -8.81,8.818 -0.668,3.218 -0.761,6.395 -0.057,9.619 1.27,5.819 5.417,9.67 12.592,9.309 C 2.019,13.571 6.269,9.211 6.82,2.139 6.88,1.365 6.828,0.583 6.828,-0.196" /></g><g
           transform="translate(187.3794,11.57)"
           id="g52"><path
             id="path54"
             style="fill:#1e83ba;fill-opacity:1;fill-rule:nonzero;stroke:none"
             d="m 0,0 c -1.029,-3.938 -3.267,-6.497 -6.781,-7.888 -2.864,-1.133 -5.838,-1.268 -8.825,-0.533 -4.164,1.025 -6.735,3.782 -7.972,7.768 -1.122,3.618 -1.174,7.328 -0.25,11.003 1.369,5.448 4.982,8.442 10.585,8.862 2.112,0.158 4.19,-0.059 6.19,-0.793 3.571,-1.309 6,-4.165 6.686,-7.973 -2.106,0 -4.186,0.014 -6.265,-0.01 -0.584,-0.006 -0.835,0.348 -1.102,0.761 -1.283,1.979 -3.214,2.403 -5.355,2.067 -2.134,-0.335 -3.31,-1.775 -3.873,-3.781 -0.762,-2.716 -0.795,-5.462 -0.072,-8.169 1.197,-4.484 6.109,-5.78 9.436,-2.507 0.829,0.816 1.712,1.234 2.869,1.203 C -3.237,-0.031 -1.743,0 0,0" /></g><g
           transform="translate(231.2817,26.6302)"
           id="g56"><path
             id="path58"
             style="fill:#1e83ba;fill-opacity:1;fill-rule:nonzero;stroke:none"
             d="m 0,0 c 0,-0.78 -0.042,-1.562 0.011,-2.339 0.062,-0.907 -0.226,-1.34 -1.21,-1.257 -1.079,0.09 -2.157,-0.03 -3.217,-0.266 -1.808,-0.402 -2.955,-1.483 -3.431,-3.286 -0.232,-0.88 -0.308,-1.767 -0.307,-2.671 0.007,-4.019 0.008,-8.038 -0.002,-12.057 -0.004,-1.465 -0.021,-1.476 -1.469,-1.489 -1.559,-0.013 -3.119,0.011 -4.678,-0.008 -0.65,-0.007 -1.008,0.182 -0.99,0.916 0.122,4.973 -0.311,9.961 0.254,14.92 0.687,6.038 4.297,9.776 10.303,10.802 1.239,0.212 2.488,0.374 3.756,0.369 0.676,-0.002 1,-0.233 0.982,-0.935 C -0.021,1.8 -0.003,0.9 -0.003,0 L 0,0 Z" /></g><g
           transform="translate(94.8866,16.6187)"
           id="g60"><path
             id="path62"
             style="fill:#66b832;fill-opacity:1;fill-rule:nonzero;stroke:none"
             d="m 0,0 c -0.001,3.953 0,7.906 -0.001,11.86 0,2.045 -0.048,1.785 1.88,1.801 0.539,0.004 1.08,0.021 1.617,-0.01 2.152,-0.124 3.446,-1.382 3.514,-3.527 0.062,-1.975 0.019,-3.953 0.019,-5.929 0.001,-5.271 0.002,-10.542 0,-15.813 -0.001,-1.893 0.087,-1.708 -1.781,-1.715 -1.378,-0.005 -2.757,0.042 -4.132,-0.015 -0.864,-0.036 -1.139,0.27 -1.131,1.129 C 0.02,-8.146 0.001,-4.073 0,0" /></g><g
           transform="translate(98.4516,32.5464)"
           id="g64"><path
             id="path66"
             style="fill:#66b832;fill-opacity:1;fill-rule:nonzero;stroke:none"
             d="m 0,0 c -0.838,0 -1.678,0.031 -2.514,-0.009 -0.739,-0.036 -1.113,0.198 -1.09,1.002 0.035,1.256 0.032,2.514 10e-4,3.771 -0.018,0.732 0.337,0.916 0.99,0.887 C -1.836,5.617 -1.057,5.647 -0.279,5.642 2.473,5.627 3.89,3.652 3.477,0.539 3.416,0.078 3.082,0.001 2.694,0.002 1.796,0.005 0.898,0.003 0,0.003 L 0,0 Z" /></g><g
           transform="translate(158.9375,54.9688)"
           id="g68"><path
             id="path70"
             style="fill:#63b82c;fill-opacity:1;fill-rule:nonzero;stroke:none"
             d="m 0,0 c 0.968,0.078 1.932,0.249 2.854,0.555 9.925,3.3 13.982,15.624 7.21,24.047 -1.999,2.488 -4.386,4.258 -7.408,5.012 -0.984,0.246 -2.627,0.358 -3.639,0.298 l -2.326,-0.138 c -0.889,-0.052 -2.337,-0.197 -3.211,-0.364 -1.06,-0.202 -1.091,0.001 -1.437,1.359 -0.822,3.227 -2.341,6.049 -5.005,8.11 -4.732,3.663 -9.884,3.863 -15.267,1.645 -1.439,-0.592 -1.416,-0.601 -2.552,0.495 -1.73,1.67 -3.553,3.213 -5.842,4.087 -4.26,2.365 -8.772,2.999 -13.517,1.931 -6.978,-1.571 -13.137,-7.143 -14.741,-15.157 -0.183,-0.912 -0.911,-1.617 -1.829,-1.772 l -2.955,-0.499 c -0.368,-0.062 -0.736,-0.14 -1.092,-0.252 -9.946,-3.142 -13.894,-16.084 -6.192,-24.55 3.276,-3.602 7.472,-4.97 12.271,-4.961 20.631,0.042 41.264,0.028 61.896,0.04 L 0,0 Z" /></g><g
           transform="translate(94.2915,55.3984)"
           id="g72"><path
             id="path74"
             style="fill:#7ec448;fill-opacity:1;fill-rule:nonzero;stroke:none"
             d="m 0,0 c -5.037,0 -8.913,1.569 -11.85,4.797 -3.496,3.843 -4.739,8.87 -3.412,13.793 1.288,4.777 4.796,8.494 9.385,9.944 0.292,0.092 0.617,0.167 1.025,0.236 l 2.955,0.498 c 1.115,0.188 2.013,1.059 2.235,2.168 1.47,7.338 7.106,13.134 14.361,14.767 1.444,0.324 2.883,0.489 4.277,0.489 3.066,0 6.056,-0.797 8.888,-2.369 2.318,-0.891 4.122,-2.451 5.737,-4.01 0.722,-0.696 1.072,-1.034 1.653,-1.034 0.376,0 0.757,0.157 1.387,0.417 2.304,0.949 4.478,1.419 6.512,1.419 2.96,0 5.755,-1.002 8.308,-2.978 2.372,-1.835 3.952,-4.399 4.828,-7.838 0.283,-1.114 0.458,-1.802 1.378,-1.802 0.169,0 0.376,0.026 0.636,0.075 0.836,0.16 2.245,0.303 3.147,0.357 l 2.325,0.137 c 0.172,0.011 0.362,0.016 0.565,0.016 1.035,0 2.209,-0.121 2.924,-0.299 2.735,-0.682 5.07,-2.265 7.14,-4.84 3.042,-3.784 4,-8.625 2.629,-13.282 C 75.647,5.953 72.055,2.223 67.425,0.684 66.607,0.411 65.686,0.232 64.689,0.151 L 61.926,0.04 41.813,0.033 C 27.893,0.03 13.971,0.027 0.05,0 L 0,0 Z" /></g><g
           transform="translate(113.2667,102.5906)"
           id="g76"><path
             id="path78"
             style="fill:#63b82c;fill-opacity:1;fill-rule:nonzero;stroke:none"
             d="m 0,0 c -1.439,0 -2.901,-0.168 -4.386,-0.502 -6.978,-1.57 -13.137,-7.142 -14.741,-15.156 -0.183,-0.913 -0.911,-1.618 -1.829,-1.773 l -2.954,-0.498 c -0.369,-0.062 -0.737,-0.14 -1.093,-0.253 -9.946,-3.141 -13.894,-16.083 -6.192,-24.55 3.265,-3.589 7.443,-4.96 12.221,-4.96 0.016,0 0.033,0 0.05,0 20.632,0.041 41.264,0.027 61.896,0.039 l 2.782,0.114 c 0.969,0.078 1.933,0.249 2.854,0.556 9.925,3.299 13.982,15.624 7.21,24.047 -1.999,2.487 -4.385,4.258 -7.408,5.012 -0.809,0.202 -2.063,0.313 -3.046,0.313 -0.213,0 -0.413,-0.005 -0.593,-0.016 l -2.326,-0.137 c -0.889,-0.053 -2.337,-0.198 -3.211,-0.365 -0.221,-0.042 -0.398,-0.066 -0.542,-0.066 -0.544,0 -0.621,0.351 -0.895,1.425 -0.822,3.228 -2.341,6.049 -5.005,8.111 -2.742,2.122 -5.627,3.082 -8.614,3.082 -2.168,0 -4.39,-0.505 -6.653,-1.437 -0.614,-0.253 -0.961,-0.399 -1.246,-0.399 -0.384,0 -0.654,0.265 -1.306,0.894 C 13.244,-4.85 11.42,-3.306 9.131,-2.433 6.205,-0.808 3.158,0 0,0 m 0,-1 0,0 c 2.98,0 5.889,-0.776 8.646,-2.307 l 0.062,-0.034 0.067,-0.026 c 2.169,-0.828 3.927,-2.35 5.527,-3.894 0.719,-0.694 1.194,-1.152 1.977,-1.152 0.475,0 0.89,0.171 1.577,0.454 l 0.049,0.02 c 2.195,0.904 4.305,1.362 6.273,1.362 2.887,0 5.504,-0.94 8.002,-2.873 2.28,-1.765 3.801,-4.24 4.648,-7.567 l 0.019,-0.073 c 0.264,-1.035 0.536,-2.105 1.845,-2.105 0.201,0 0.419,0.025 0.729,0.084 0.789,0.151 2.187,0.295 3.083,0.348 l 2.326,0.138 c 0.162,0.01 0.342,0.014 0.534,0.014 0.982,0 2.135,-0.117 2.804,-0.283 2.624,-0.655 4.872,-2.182 6.871,-4.669 2.938,-3.654 3.863,-8.33 2.539,-12.827 -1.34,-4.552 -4.811,-8.157 -9.285,-9.644 -0.783,-0.261 -1.664,-0.431 -2.58,-0.505 l -2.742,-0.114 c -6.578,-0.003 -13.157,-0.005 -19.735,-0.006 -13.819,-0.002 -28.108,-0.005 -42.21,-0.033 -4.89,0 -8.645,1.515 -11.481,4.633 -3.379,3.714 -4.582,8.572 -3.299,13.327 1.243,4.611 4.627,8.199 9.052,9.597 0.271,0.085 0.575,0.155 0.958,0.22 l 2.955,0.498 c 1.318,0.222 2.38,1.252 2.642,2.562 1.431,7.145 6.919,12.788 13.981,14.378 C -2.759,-1.161 -1.357,-1 0,-1" /></g></g></g><g
       id="g80"><g
         clip-path="url(#clipPath84)"
         id="g82"><g
           id="g88"><g
             id="g90"><path
               id="path100"
               style="fill:url(#linearGradient92);stroke:none"
               d="m 176.945,92.093 c -0.999,-0.9 -1.665,-1.062 -2.9,-0.549 l 0,0 c -4.691,1.948 -9.656,0.761 -12.744,-2.902 l 0,0 c -0.287,-0.34 -0.688,-0.648 -0.653,-1.31 l 0,0 c 3.936,-0.781 7.221,-2.752 9.976,-5.639 l 0,0 c 0.126,-0.201 0.24,-0.41 0.38,-0.6 l 0,0 c 4.633,-6.325 5.157,-12.949 1.473,-19.891 l 0,0 c -0.159,-0.299 -0.49,-0.554 -0.356,-0.963 l 0,0 c 0.101,-0.059 0.193,-0.159 0.285,-0.159 l 0,0 c 5.87,0.011 11.739,0.031 17.609,0.05 l 0,0 c 4.422,-0.108 8.844,-0.125 13.266,-0.01 l 0,0 2.095,0.162 c 6.019,1.022 9.946,5.879 9.775,12.142 l 0,0 c -0.155,5.705 -4.919,10.573 -10.832,11.008 l 0,0 c -1.526,0.111 -1.275,-0.059 -1.639,1.524 l 0,0 c -1.154,5.029 -4.063,8.692 -8.811,10.628 l 0,0 c -2.053,0.836 -4.034,1.231 -5.942,1.231 l 0,0 c -3.985,-0.001 -7.651,-1.72 -10.982,-4.722" /></g></g></g></g><g
       id="g102"><g
         clip-path="url(#clipPath106)"
         id="g104"><g
           transform="translate(170.6236,81.6929)"
           id="g110"><path
             id="path112"
             style="fill:none;stroke:#0071b0;stroke-width:1;stroke-linecap:butt;stroke-linejoin:miter;stroke-miterlimit:10;stroke-dasharray:none;stroke-opacity:1"
             d="m 0,0 c -2.754,2.887 -6.04,4.858 -9.975,5.64 -0.035,0.661 0.366,0.969 0.652,1.309 3.089,3.663 8.053,4.85 12.744,2.901 1.235,-0.512 1.902,-0.349 2.9,0.55 4.926,4.439 10.585,6.075 16.924,3.491 4.749,-1.936 7.657,-5.6 8.811,-10.628 0.364,-1.583 0.114,-1.412 1.639,-1.524 5.914,-0.435 10.677,-5.303 10.833,-11.008 0.17,-6.263 -3.757,-11.119 -9.776,-12.142 l -2.095,-0.162 c -4.421,-0.115 -8.843,-0.098 -13.265,0.01 -5.87,-0.019 -11.74,-0.038 -17.609,-0.05 -0.092,0 -0.185,0.101 -0.285,0.159 -0.134,0.409 0.197,0.664 0.356,0.963 3.684,6.942 3.159,13.567 -1.474,19.89 C 0.24,-0.41 0.126,-0.201 0,0" /></g></g></g><g
       id="g114"><g
         clip-path="url(#clipPath118)"
         id="g116"><g
           id="g122"><g
             id="g124"><path
               id="path134"
               style="fill:url(#linearGradient126);stroke:none"
               d="m 91.316,111.052 -0.66,-2.802 -0.741,0.007 c -6.498,0.049 -11.639,-2.675 -15.507,-7.826 l 0,0 C 69.611,94.044 69.403,85.433 73.684,78.691 l 0,0 c 0.717,-1.131 1.535,-2.207 2.654,-3.2 l 0,0 c 0.3,0.703 0.516,1.243 0.758,1.771 l 0,0 c 1.481,3.23 3.746,5.786 6.685,7.763 l 0,0 c 2.125,1.107 4.288,2.154 6.708,2.381 l 0,0 c 1.028,0.097 1.373,0.547 1.639,1.488 l 0,0 c 1.412,5 4.137,8.998 8.277,12.039 l 0,0 c 0.705,0.518 1.936,1.241 2.726,1.615 l 0,0 1.416,0.67 c 0.73,0.342 1.707,0.59 2.482,0.811 l 0,0 c 4.242,1.215 8.492,1.127 12.761,-0.202 l 0,0 c 2.506,-0.845 4.871,-1.976 7.011,-3.537 l 0,0 c 1.058,-0.772 1.992,-2.089 3.127,-2.276 l 0,0 c 1.224,-0.202 2.617,0.63 3.936,1.01 l 0,0 1.741,0.275 c 0.392,0.028 0.785,0.056 1.176,0.084 l 0,0 c 4.233,-0.098 8.065,-1.283 11.259,-4.123 l 0,0 c 0.84,-0.746 1.583,-1.601 2.371,-2.406 l 0,0 c 0.993,-1.692 2.042,-3.356 2.581,-5.276 l 0,0 c 0.036,-0.129 0.155,-0.216 0.289,-0.207 l 0,0 c 1.533,0.109 3.084,0.111 4.574,0.568 l 0,0 c 0.085,0.027 0.13,0.193 0.188,0.297 l 0,0 c 1.411,2.543 3.569,4.282 6.075,5.647 l 0,0 c 3.439,1.197 6.892,1.451 10.362,0.129 l 0,0 c 0.722,-0.274 1.124,0.134 1.478,0.664 l 0,0 c 0.841,0.359 1.284,1.241 2.066,1.639 l 0,0 c 2.316,1.176 4.685,2.234 7.286,2.638 l 0,0 c 0.75,0.116 1.499,0.235 2.44,0.384 l 0,0 c -2.893,4.299 -6.576,7.084 -11.423,8.268 l 0,0 c -3.658,1.216 -7.289,0.881 -10.912,-0.172 l 0,0 c -0.55,-0.16 -1.074,-0.591 -1.694,-0.21 l 0,0 c -0.016,1.582 -0.525,3.059 -1.12,4.481 l 0,0 c -2.144,5.12 -5.432,8.643 -10.183,10.329 l 0,0 c -2.159,0.765 -4.445,1.101 -6.731,0.967 l 0,0 -2.421,-0.256 c -1.764,-0.105 -3.507,-0.479 -5.135,-1.166 l 0,0 c -0.085,-0.036 -0.17,-0.072 -0.256,-0.109 l 0,0 c -1.204,-0.516 -2.601,-0.259 -3.541,0.655 l 0,0 c -1.877,1.824 -3.849,3.423 -6.303,4.485 l 0,0 c 0,0 -1.385,1.183 -5.132,2.468 l 0,0 c -2.485,0.853 -5.027,1.255 -7.539,1.255 l 0,0 c -11.066,0 -21.555,-7.802 -24.044,-19.28" /></g></g></g></g><g
       id="g136"><g
         clip-path="url(#clipPath140)"
         id="g138"><g
           transform="translate(89.9157,108.2575)"
           id="g144"><path
             id="path146"
             style="fill:none;stroke:#0071b0;stroke-width:1;stroke-linecap:butt;stroke-linejoin:miter;stroke-miterlimit:10;stroke-dasharray:none;stroke-opacity:1"
             d="m 0,0 c -6.499,0.048 -11.64,-2.676 -15.508,-7.827 -4.796,-6.387 -5.005,-14.997 -0.724,-21.74 0.718,-1.131 1.535,-2.207 2.654,-3.199 0.3,0.702 0.516,1.242 0.758,1.77 1.482,3.23 3.746,5.787 6.685,7.763 2.126,1.108 4.288,2.155 6.708,2.381 1.029,0.097 1.374,0.548 1.639,1.488 1.412,5.001 4.137,8.999 8.278,12.04 0.704,0.517 1.935,1.24 2.725,1.615 l 1.416,0.67 c 0.73,0.342 1.707,0.589 2.482,0.811 4.243,1.214 8.492,1.127 12.761,-0.203 2.506,-0.844 4.871,-1.975 7.011,-3.537 1.058,-0.772 1.992,-2.089 3.127,-2.276 1.223,-0.201 2.617,0.63 3.936,1.011 l 1.741,0.274 c 0.392,0.029 0.785,0.057 1.177,0.085 4.232,-0.098 8.065,-1.284 11.259,-4.123 0.839,-0.747 1.583,-1.601 2.37,-2.406 0.993,-1.692 2.042,-3.357 2.581,-5.277 0.036,-0.129 0.155,-0.216 0.289,-0.206 1.534,0.108 3.085,0.11 4.574,0.568 0.085,0.026 0.13,0.193 0.188,0.297 1.411,2.543 3.569,4.282 6.075,5.646 3.44,1.197 6.892,1.452 10.363,0.13 0.721,-0.275 1.123,0.134 1.477,0.663 0.841,0.359 1.284,1.242 2.066,1.639 2.317,1.177 4.686,2.235 7.286,2.639 0.75,0.116 1.499,0.235 2.44,0.383 -2.893,4.3 -6.576,7.084 -11.423,8.269 -3.657,1.215 -7.289,0.88 -10.911,-0.173 -0.551,-0.16 -1.075,-0.591 -1.695,-0.209 -0.016,1.582 -0.524,3.059 -1.119,4.48 -2.144,5.12 -5.433,8.644 -10.184,10.329 -2.158,0.765 -4.444,1.102 -6.73,0.967 L 53.35,14.486 c -1.764,-0.104 -3.507,-0.478 -5.134,-1.165 -0.085,-0.036 -0.17,-0.072 -0.256,-0.109 -1.204,-0.517 -2.601,-0.259 -3.541,0.654 -1.878,1.824 -3.85,3.423 -6.303,4.486 0,0 -1.386,1.182 -5.133,2.468 C 19.554,25.428 4.454,16.878 1.4,2.795 L 0.741,-0.008 0,0 Z" /></g><g
           transform="translate(169.0833,70.9375)"
           id="g148"><path
             id="path150"
             style="fill:#fafdf7;fill-opacity:1;fill-rule:nonzero;stroke:none"
             d="m 0,0 -29.833,2 -7,17.625 -7.438,-23.687 -9.562,23.624 -6.688,-17.625 -27.729,-1.75 29.792,-1.937 4.875,13.188 9.625,-25.042 7.375,23.792 4.812,-12.125 L 0,0 Z" /></g></g></g></g></svg>